HIERARCHY
ROOT mixamorig:Hips
{
	OFFSET -0.000008 104.274872 1.554316
	CHANNELS 6 Xposition Yposition Zposition Xrotation Yrotation Zrotation
	JOINT mixamorig:Spine
	{
		OFFSET -0.000005 10.181595 0.131519
		CHANNELS 6 Xposition Yposition Zposition Xrotation Yrotation Zrotation
		JOINT mixamorig:Spine1
		{
			OFFSET -0.000000 9.893959 -1.470707
			CHANNELS 6 Xposition Yposition Zposition Xrotation Yrotation Zrotation
			JOINT mixamorig:Spine2
			{
				OFFSET -0.000000 9.220757 -1.370641
				CHANNELS 6 Xposition Yposition Zposition Xrotation Yrotation Zrotation
				JOINT mixamorig:Neck
				{
					OFFSET 0.000001 16.740417 -2.049036
					CHANNELS 6 Xposition Yposition Zposition Xrotation Yrotation Zrotation
					JOINT mixamorig:Head
					{
						OFFSET 0.000000 9.617874 1.685006
						CHANNELS 6 Xposition Yposition Zposition Xrotation Yrotation Zrotation
						JOINT mixamorig:HeadTop_End
						{
							OFFSET 0.000002 22.037354 7.501101
							CHANNELS 6 Xposition Yposition Zposition Xrotation Yrotation Zrotation
							End Site
							{
								OFFSET 0.000168 2310.654297 -282.823242
							}
						}
					}
				}
				JOINT mixamorig:RightShoulder
				{
					OFFSET -4.569970 11.014908 -2.160885
					CHANNELS 6 Xposition Yposition Zposition Xrotation Yrotation Zrotation
					JOINT mixamorig:RightArm
					{
						OFFSET -10.592851 -0.524811 -2.232101
						CHANNELS 6 Xposition Yposition Zposition Xrotation Yrotation Zrotation
						JOINT mixamorig:RightForeArm
						{
							OFFSET -27.841511 0.000031 -0.000004
							CHANNELS 6 Xposition Yposition Zposition Xrotation Yrotation Zrotation
							JOINT mixamorig:RightHand
							{
								OFFSET -28.328831 -0.000015 0.000015
								CHANNELS 6 Xposition Yposition Zposition Xrotation Yrotation Zrotation
								JOINT mixamorig:RightHandThumb1
								{
									OFFSET -2.464806 -1.573990 2.681852
									CHANNELS 6 Xposition Yposition Zposition Xrotation Yrotation Zrotation
									JOINT mixamorig:RightHandThumb2
									{
										OFFSET -3.215179 -1.872803 1.924282
										CHANNELS 6 Xposition Yposition Zposition Xrotation Yrotation Zrotation
										JOINT mixamorig:RightHandThumb3
										{
											OFFSET -2.654831 -1.527969 1.512609
											CHANNELS 6 Xposition Yposition Zposition Xrotation Yrotation Zrotation
											JOINT mixamorig:RightHandThumb4
											{
												OFFSET -2.018814 -1.152008 1.108052
												CHANNELS 6 Xposition Yposition Zposition Xrotation Yrotation Zrotation
												End Site
												{
													OFFSET -188.809540 -114.533607 132.431396
												}
											}
										}
									}
								}
								JOINT mixamorig:RightHandIndex1
								{
									OFFSET -9.108284 -0.517868 2.259835
									CHANNELS 6 Xposition Yposition Zposition Xrotation Yrotation Zrotation
									JOINT mixamorig:RightHandIndex2
									{
										OFFSET -3.699989 0.000000 0.001215
										CHANNELS 6 Xposition Yposition Zposition Xrotation Yrotation Zrotation
										JOINT mixamorig:RightHandIndex3
										{
											OFFSET -2.850006 0.000031 -0.000522
											CHANNELS 6 Xposition Yposition Zposition Xrotation Yrotation Zrotation
											JOINT mixamorig:RightHandIndex4
											{
												OFFSET -2.772186 -0.000015 -0.000020
												CHANNELS 6 Xposition Yposition Zposition Xrotation Yrotation Zrotation
												End Site
												{
													OFFSET -277.218445 0.000000 -0.050231
												}
											}
										}
									}
								}
								JOINT mixamorig:RightHandMiddle1
								{
									OFFSET -9.532516 -0.000031 -0.000023
									CHANNELS 6 Xposition Yposition Zposition Xrotation Yrotation Zrotation
									JOINT mixamorig:RightHandMiddle2
									{
										OFFSET -3.700005 -0.000015 0.003713
										CHANNELS 6 Xposition Yposition Zposition Xrotation Yrotation Zrotation
										JOINT mixamorig:RightHandMiddle3
										{
											OFFSET -2.949974 0.000015 -0.002054
											CHANNELS 6 Xposition Yposition Zposition Xrotation Yrotation Zrotation
											JOINT mixamorig:RightHandMiddle4
											{
												OFFSET -2.946640 0.000000 -0.000156
												CHANNELS 6 Xposition Yposition Zposition Xrotation Yrotation Zrotation
												End Site
												{
													OFFSET -294.664337 0.000000 -0.113670
												}
											}
										}
									}
								}
								JOINT mixamorig:RightHandRing1
								{
									OFFSET -9.103600 -0.043076 -1.865134
									CHANNELS 6 Xposition Yposition Zposition Xrotation Yrotation Zrotation
									JOINT mixamorig:RightHandRing2
									{
										OFFSET -3.379288 0.000000 -0.001055
										CHANNELS 6 Xposition Yposition Zposition Xrotation Yrotation Zrotation
										JOINT mixamorig:RightHandRing3
										{
											OFFSET -2.889687 -0.000015 0.000379
											CHANNELS 6 Xposition Yposition Zposition Xrotation Yrotation Zrotation
											JOINT mixamorig:RightHandRing4
											{
												OFFSET -2.638809 -0.000015 0.000941
												CHANNELS 6 Xposition Yposition Zposition Xrotation Yrotation Zrotation
												End Site
												{
													OFFSET -263.880371 0.000000 0.516020
												}
											}
										}
									}
								}
								JOINT mixamorig:RightHandPinky1
								{
									OFFSET -8.076683 -0.486710 -3.806280
									CHANNELS 6 Xposition Yposition Zposition Xrotation Yrotation Zrotation
									JOINT mixamorig:RightHandPinky2
									{
										OFFSET -3.600014 -0.000015 -0.003747
										CHANNELS 6 Xposition Yposition Zposition Xrotation Yrotation Zrotation
										JOINT mixamorig:RightHandPinky3
										{
											OFFSET -2.099983 0.000000 -0.005739
											CHANNELS 6 Xposition Yposition Zposition Xrotation Yrotation Zrotation
											JOINT mixamorig:RightHandPinky4
											{
												OFFSET -2.115768 -0.000031 -0.003680
												CHANNELS 6 Xposition Yposition Zposition Xrotation Yrotation Zrotation
												End Site
												{
													OFFSET -211.577087 0.000000 -0.350686
												}
											}
										}
									}
								}
							}
						}
					}
				}
				JOINT mixamorig:LeftShoulder
				{
					OFFSET 4.570447 11.014725 -2.160855
					CHANNELS 6 Xposition Yposition Zposition Xrotation Yrotation Zrotation
					JOINT mixamorig:LeftArm
					{
						OFFSET 10.592371 -0.524597 -2.232119
						CHANNELS 6 Xposition Yposition Zposition Xrotation Yrotation Zrotation
						JOINT mixamorig:LeftForeArm
						{
							OFFSET 27.841532 -0.000031 0.000026
							CHANNELS 6 Xposition Yposition Zposition Xrotation Yrotation Zrotation
							JOINT mixamorig:LeftHand
							{
								OFFSET 28.328846 -0.000061 0.000022
								CHANNELS 6 Xposition Yposition Zposition Xrotation Yrotation Zrotation
								JOINT mixamorig:LeftHandThumb1
								{
									OFFSET 2.466141 -1.576172 2.681732
									CHANNELS 6 Xposition Yposition Zposition Xrotation Yrotation Zrotation
									JOINT mixamorig:LeftHandThumb2
									{
										OFFSET 3.217812 -1.872070 1.916482
										CHANNELS 6 Xposition Yposition Zposition Xrotation Yrotation Zrotation
										JOINT mixamorig:LeftHandThumb3
										{
											OFFSET 2.656029 -1.528778 1.514513
											CHANNELS 6 Xposition Yposition Zposition Xrotation Yrotation Zrotation
											JOINT mixamorig:LeftHandThumb4
											{
												OFFSET 2.020889 -1.154053 1.115139
												CHANNELS 6 Xposition Yposition Zposition Xrotation Yrotation Zrotation
												End Site
												{
													OFFSET 190.885437 -115.081749 130.048782
												}
											}
										}
									}
								}
								JOINT mixamorig:LeftHandIndex1
								{
									OFFSET 9.109314 -0.518021 2.259871
									CHANNELS 6 Xposition Yposition Zposition Xrotation Yrotation Zrotation
									JOINT mixamorig:LeftHandIndex2
									{
										OFFSET 3.699989 0.000000 -0.000322
										CHANNELS 6 Xposition Yposition Zposition Xrotation Yrotation Zrotation
										JOINT mixamorig:LeftHandIndex3
										{
											OFFSET 2.850006 0.000000 0.000352
											CHANNELS 6 Xposition Yposition Zposition Xrotation Yrotation Zrotation
											JOINT mixamorig:LeftHandIndex4
											{
												OFFSET 2.774864 -0.000031 -0.000027
												CHANNELS 6 Xposition Yposition Zposition Xrotation Yrotation Zrotation
												End Site
												{
													OFFSET 277.486267 0.000000 -0.009857
												}
											}
										}
									}
								}
								JOINT mixamorig:LeftHandMiddle1
								{
									OFFSET 9.533394 0.000061 0.000044
									CHANNELS 6 Xposition Yposition Zposition Xrotation Yrotation Zrotation
									JOINT mixamorig:LeftHandMiddle2
									{
										OFFSET 3.699989 -0.000015 -0.000231
										CHANNELS 6 Xposition Yposition Zposition Xrotation Yrotation Zrotation
										JOINT mixamorig:LeftHandMiddle3
										{
											OFFSET 2.949997 -0.000015 -0.000059
											CHANNELS 6 Xposition Yposition Zposition Xrotation Yrotation Zrotation
											JOINT mixamorig:LeftHandMiddle4
											{
												OFFSET 2.952896 0.000031 0.000063
												CHANNELS 6 Xposition Yposition Zposition Xrotation Yrotation Zrotation
												End Site
												{
													OFFSET 295.289337 0.000000 0.022810
												}
											}
										}
									}
								}
								JOINT mixamorig:LeftHandRing1
								{
									OFFSET 9.104523 -0.042999 -1.865074
									CHANNELS 6 Xposition Yposition Zposition Xrotation Yrotation Zrotation
									JOINT mixamorig:LeftHandRing2
									{
										OFFSET 3.150009 -0.000031 0.000043
										CHANNELS 6 Xposition Yposition Zposition Xrotation Yrotation Zrotation
										JOINT mixamorig:LeftHandRing3
										{
											OFFSET 2.949982 -0.000015 0.000040
											CHANNELS 6 Xposition Yposition Zposition Xrotation Yrotation Zrotation
											JOINT mixamorig:LeftHandRing4
											{
												OFFSET 2.644348 0.000000 0.000057
												CHANNELS 6 Xposition Yposition Zposition Xrotation Yrotation Zrotation
												End Site
												{
													OFFSET 264.434631 0.000000 0.012105
												}
											}
										}
									}
								}
								JOINT mixamorig:LeftHandPinky1
								{
									OFFSET 8.077789 -0.486847 -3.806259
									CHANNELS 6 Xposition Yposition Zposition Xrotation Yrotation Zrotation
									JOINT mixamorig:LeftHandPinky2
									{
										OFFSET 3.599953 0.000031 0.014727
										CHANNELS 6 Xposition Yposition Zposition Xrotation Yrotation Zrotation
										JOINT mixamorig:LeftHandPinky3
										{
											OFFSET 2.100021 0.000015 0.007705
											CHANNELS 6 Xposition Yposition Zposition Xrotation Yrotation Zrotation
											JOINT mixamorig:LeftHandPinky4
											{
												OFFSET 2.125504 0.000031 0.007517
												CHANNELS 6 Xposition Yposition Zposition Xrotation Yrotation Zrotation
												End Site
												{
													OFFSET 212.550781 0.000000 0.625752
												}
											}
										}
									}
								}
							}
						}
					}
				}
			}
		}
	}
	JOINT mixamorig:RightUpLeg
	{
		OFFSET -8.207787 -6.751648 -1.599560
		CHANNELS 6 Xposition Yposition Zposition Xrotation Yrotation Zrotation
		JOINT mixamorig:RightLeg
		{
			OFFSET -0.000002 -44.370117 0.345942
			CHANNELS 6 Xposition Yposition Zposition Xrotation Yrotation Zrotation
			JOINT mixamorig:RightFoot
			{
				OFFSET 0.000003 -44.423679 -3.043532
				CHANNELS 6 Xposition Yposition Zposition Xrotation Yrotation Zrotation
				JOINT mixamorig:RightToeBase
				{
					OFFSET -0.000002 -8.728671 10.710558
					CHANNELS 6 Xposition Yposition Zposition Xrotation Yrotation Zrotation
					JOINT mixamorig:RightToe_End
					{
						OFFSET -0.000001 -0.000679 9.278119
						CHANNELS 6 Xposition Yposition Zposition Xrotation Yrotation Zrotation
						End Site
						{
							OFFSET 0.000000 -0.067690 927.812134
						}
					}
				}
			}
		}
	}
	JOINT mixamorig:LeftUpLeg
	{
		OFFSET 8.207793 -6.751686 -1.599556
		CHANNELS 6 Xposition Yposition Zposition Xrotation Yrotation Zrotation
		JOINT mixamorig:LeftLeg
		{
			OFFSET -0.000004 -44.370014 0.346954
			CHANNELS 6 Xposition Yposition Zposition Xrotation Yrotation Zrotation
			JOINT mixamorig:LeftFoot
			{
				OFFSET -0.000001 -44.423672 -3.044401
				CHANNELS 6 Xposition Yposition Zposition Xrotation Yrotation Zrotation
				JOINT mixamorig:LeftToeBase
				{
					OFFSET -0.000002 -8.728669 10.710558
					CHANNELS 6 Xposition Yposition Zposition Xrotation Yrotation Zrotation
					JOINT mixamorig:LeftToe_End
					{
						OFFSET -0.000003 -0.000679 9.278133
						CHANNELS 6 Xposition Yposition Zposition Xrotation Yrotation Zrotation
						End Site
						{
							OFFSET 0.000000 -0.068021 927.813477
						}
					}
				}
			}
		}
	}
}
MOTION
Frames: 3
Frame Time: 0.033333
0.000006 104.270477 1.554256 0.000010 0.000003 -0.000113 -0.000005 10.181587 0.131522 0.000001 -0.000003 0.000084 -0.000000 9.893967 -1.470711 0.000001 0.000000 -0.000000 -0.000000 9.220802 -1.370642 0.000000 -0.000000 -0.000000 0.000001 16.740433 -2.049030 0.000000 -0.000000 -0.000000 0.000000 9.617859 1.685014 0.000000 0.000000 0.000000 0.000002 22.037384 7.501101 0.000000 -0.000000 0.000000 -4.569968 11.014880 -2.160881 0.000008 0.000001 -0.000038 -10.592879 -0.524765 -2.231905 73.265411 28.791457 -21.610222 -27.841513 0.000012 0.000548 -51.900825 107.935929 67.568562 -28.328829 0.000005 0.000018 -0.000321 -0.000045 0.000007 -2.464477 -1.574033 2.682400 -9.446760 -147.233661 57.279298 -3.215148 -1.872410 1.924610 138.890736 32.817218 66.455514 -2.654954 -1.527904 1.513100 153.160312 25.805722 -36.294362 -2.018819 -1.152010 1.108066 -0.000003 -0.000003 0.000002 -9.108397 -0.517592 2.260207 114.793227 17.684391 -27.412751 -3.700057 0.000281 0.001587 111.515228 13.648872 -19.908635 -2.850104 0.000364 -0.000181 110.351746 10.490696 -15.034635 -2.772169 -0.000001 -0.000016 -0.000003 0.000001 -0.000001 -9.532585 0.000260 0.000276 99.337602 17.726798 -20.985165 -3.700060 0.000324 0.004003 101.000418 13.021570 -15.648962 -2.950064 0.000340 -0.001778 101.042718 10.963881 -13.282642 -2.946629 0.000015 -0.000156 -0.000002 0.000001 0.000002 -9.103714 -0.042775 -1.864836 94.283194 22.774731 -24.442564 -3.379351 0.000302 -0.000777 96.372576 13.284663 -14.854570 -2.889758 0.000354 0.000650 99.333804 7.088338 -8.398125 -2.638830 -0.000031 0.000942 -0.000002 0.000000 -0.000001 -8.076759 -0.486406 -3.806059 77.268018 20.250702 -16.120635 -3.600059 0.000251 -0.003559 77.284116 10.841237 -8.382160 -2.100011 0.000296 -0.005542 79.896425 5.680585 -4.574725 -2.115772 -0.000028 -0.003673 0.000003 -0.000000 -0.000005 4.570446 11.014691 -2.160851 -0.000018 0.000010 -0.000021 10.592411 -0.524481 -2.232370 71.208561 -17.783195 12.783555 27.841816 0.000050 -0.000195 96.559764 -73.241648 79.628859 28.328840 -0.000029 0.000022 0.000023 -0.000087 -0.000000 2.466240 -1.576070 2.681832 -173.375910 12.994023 81.732134 3.217828 -1.871756 1.916382 162.139853 -29.281444 11.027702 2.656102 -1.528642 1.514455 140.046882 -27.655082 49.481876 2.020895 -1.154087 1.115148 0.000002 -0.000000 0.000001 9.109369 -0.517903 2.259742 72.195707 -19.793557 14.490374 3.700036 0.000068 -0.000445 63.933262 -23.254103 14.646663 2.850046 0.000100 0.000234 61.028976 -17.204389 10.189117 2.774885 -0.000029 -0.000027 -0.000000 -0.000001 -0.000002 9.533472 0.000138 -0.000064 64.927573 -19.837127 12.689329 3.700055 0.000086 -0.000347 65.646273 -25.125814 16.357545 2.950070 0.000076 -0.000174 63.307849 -24.339036 15.148178 2.952874 -0.000015 0.000062 -0.000001 0.000002 -0.000000 9.104576 -0.042921 -1.865192 63.266881 -19.253523 11.931231 3.150047 0.000122 -0.000072 66.713067 -21.404442 14.185024 2.950023 0.000093 -0.000033 64.333333 -19.498252 12.335998 2.644315 0.000028 0.000054 0.000002 0.000001 0.000001 8.077831 -0.486786 -3.806383 61.914176 -18.864054 11.758317 3.599982 0.000103 0.014587 57.025970 -16.087464 9.080469 2.100032 0.000113 0.007568 59.338928 -14.491679 8.579625 2.125518 -0.000016 0.007518 0.000001 -0.000002 0.000003 -8.207786 -6.751667 -1.599560 -0.077001 -0.000003 0.000080 -0.000002 -44.370110 0.345938 0.153719 -0.000000 -0.000000 0.000000 -44.423679 -3.043532 -0.076700 0.000000 -0.000002 -0.000006 -8.728667 10.710559 -0.000009 -0.000000 -0.000000 -0.000001 -0.000679 9.278123 0.000000 -0.000000 -0.000000 8.207792 -6.751710 -1.599556 -0.074518 -0.000003 0.000081 -0.000002 -44.370014 0.346960 0.148822 0.000002 0.000000 -0.000001 -44.423664 -3.044403 -0.074314 0.000000 -0.000002 -0.000004 -8.728671 10.710558 0.000007 -0.000000 -0.000000 0.000000 -0.000680 9.278137 -0.000000 0.000000 -0.000001 
0.000006 104.270477 1.554256 0.000010 0.000003 -0.000113 -0.000005 10.181587 0.131522 0.000001 -0.000003 0.000084 -0.000000 9.893967 -1.470711 0.000001 0.000000 -0.000000 -0.000000 9.220802 -1.370642 0.000000 -0.000000 -0.000000 0.000001 16.740433 -2.049030 0.000000 -0.000000 -0.000000 0.000000 9.617859 1.685014 0.000000 0.000000 0.000000 0.000002 22.037384 7.501101 0.000000 -0.000000 0.000000 -4.569968 11.014880 -2.160881 0.000008 0.000001 -0.000038 -10.592854 -0.524807 -2.231835 72.752771 43.616400 -32.846025 -27.841522 0.000002 0.000554 -47.318816 103.446671 58.080329 -28.328842 0.000009 0.000029 -0.000321 -0.000046 0.000009 -2.464441 -1.574038 2.682369 -10.078765 -142.490327 52.683319 -3.215161 -1.872469 1.924590 141.246181 32.914777 48.612297 -2.654981 -1.527870 1.513044 145.342956 28.346016 -23.378578 -2.018845 -1.152018 1.108061 -0.000004 0.000003 -0.000000 -9.108346 -0.517562 2.260202 115.227422 13.770879 -21.629768 -3.700071 0.000316 0.001595 114.418803 10.806538 -16.669507 -2.850070 0.000358 -0.000190 112.838973 9.178048 -13.785623 -2.772164 0.000002 -0.000016 0.000004 0.000002 0.000000 -9.532590 0.000272 0.000300 101.034043 16.084440 -19.635708 -3.700063 0.000332 0.004004 101.939945 12.808071 -15.648189 -2.950060 0.000318 -0.001765 103.183552 11.872146 -14.934063 -2.946632 0.000000 -0.000154 -0.000000 0.000001 -0.000000 -9.103710 -0.042774 -1.864833 94.568176 22.010483 -23.738973 -3.379358 0.000294 -0.000767 99.511137 16.213800 -19.128037 -2.889768 0.000336 0.000691 104.013242 11.075967 -14.213281 -2.638817 0.000001 0.000940 0.000000 -0.000000 -0.000000 -8.076764 -0.486417 -3.806045 76.299347 23.662241 -18.560289 -3.600062 0.000228 -0.003568 76.366139 17.527416 -13.511814 -2.100062 0.000279 -0.005512 81.106953 10.661685 -8.928960 -2.115780 -0.000016 -0.003677 0.000001 0.000002 -0.000005 4.570446 11.014691 -2.160851 -0.000018 0.000010 -0.000021 10.592436 -0.524472 -2.232398 71.548595 -25.979091 18.874005 27.841824 0.000024 -0.000189 98.685510 -76.625604 85.227121 28.328842 -0.000027 0.000024 0.000024 -0.000088 0.000002 2.466258 -1.575909 2.681794 -160.372637 -8.038922 44.109058 3.217884 -1.871878 1.916447 169.622216 -15.206359 55.601923 2.656088 -1.528713 1.514537 140.498890 -26.311197 72.918218 2.020902 -1.154067 1.115152 0.000002 0.000001 0.000004 9.109385 -0.517921 2.259755 69.195144 -25.919525 18.030142 3.700056 0.000097 -0.000452 66.640530 -19.185767 12.691852 2.850041 0.000115 0.000220 64.924220 -14.785924 9.436219 2.774864 -0.000030 -0.000030 0.000004 0.000002 0.000000 9.533467 0.000121 -0.000064 65.337289 -24.826090 16.060136 3.700047 0.000108 -0.000371 65.740639 -16.466012 10.681148 2.950041 0.000102 -0.000196 64.318963 -14.855183 9.373828 2.952867 -0.000030 0.000061 0.000001 0.000001 -0.000001 9.104590 -0.042924 -1.865195 66.008874 -23.901941 15.657141 3.150046 0.000132 -0.000071 65.210432 -15.376658 9.871978 2.950006 0.000100 -0.000083 65.072175 -11.799219 7.544336 2.644318 0.000030 0.000056 0.000002 -0.000003 0.000000 8.077847 -0.486781 -3.806393 61.112237 -23.831865 14.595856 3.599990 0.000108 0.014596 56.048829 -17.842971 9.854447 2.100036 0.000082 0.007564 57.915162 -13.284331 7.655640 2.125485 -0.000019 0.007513 -0.000002 0.000000 0.000001 -8.207786 -6.751667 -1.599560 -0.077001 -0.000003 0.000080 -0.000002 -44.370110 0.345938 0.153719 -0.000000 -0.000000 0.000000 -44.423679 -3.043532 -0.076700 0.000000 -0.000002 -0.000006 -8.728667 10.710559 -0.000009 -0.000000 -0.000000 -0.000001 -0.000679 9.278123 0.000000 -0.000000 -0.000000 8.207792 -6.751710 -1.599556 -0.074518 -0.000003 0.000081 -0.000002 -44.370014 0.346960 0.148822 0.000002 0.000000 -0.000001 -44.423664 -3.044403 -0.074314 0.000000 -0.000002 -0.000004 -8.728671 10.710558 0.000007 -0.000000 -0.000000 0.000000 -0.000680 9.278137 -0.000000 0.000000 -0.000001 
0.000006 104.270477 1.554256 0.000010 0.000003 -0.000113 -0.000005 10.181587 0.131522 0.000001 -0.000003 0.000084 -0.000000 9.893967 -1.470711 0.000001 0.000000 -0.000000 -0.000000 9.220802 -1.370642 0.000000 -0.000000 -0.000000 0.000001 16.740433 -2.049030 0.000000 -0.000000 -0.000000 0.000000 9.617859 1.685014 0.000000 0.000000 0.000000 0.000002 22.037384 7.501101 0.000000 -0.000000 0.000000 -4.569968 11.014880 -2.160881 0.000008 0.000001 -0.000038 -10.592840 -0.524811 -2.231814 71.951330 48.837628 -36.481099 -27.841515 -0.000018 0.000567 -37.082002 102.085906 45.058160 -28.328842 0.000022 0.000022 -0.000323 -0.000045 0.000006 -2.464447 -1.574037 2.682366 -9.073535 -140.095431 52.383706 -3.215100 -1.872407 1.924600 132.527431 28.153246 77.266986 -2.654964 -1.527848 1.513041 148.188071 28.866616 -15.655282 -2.018842 -1.152014 1.108069 -0.000007 -0.000001 0.000002 -9.108375 -0.517563 2.260228 121.308695 12.317898 -21.809972 -3.700043 0.000320 0.001603 117.280714 7.954119 -12.980033 -2.850054 0.000390 -0.000178 114.242113 5.747760 -8.880149 -2.772169 -0.000005 -0.000023 -0.000000 0.000001 0.000002 -9.532585 0.000296 0.000284 104.396942 10.622202 -13.840558 -3.700074 0.000349 0.004006 104.663620 8.353510 -10.690394 -2.950040 0.000341 -0.001781 101.094962 8.783829 -10.655379 -2.946625 0.000000 -0.000150 -0.000001 -0.000001 0.000000 -9.103699 -0.042740 -1.864839 99.400044 13.231420 -15.524549 -3.379351 0.000305 -0.000767 100.536088 12.110980 -14.568495 -2.889774 0.000335 0.000684 100.090863 9.808639 -11.752588 -2.638816 -0.000015 0.000941 0.000000 -0.000001 -0.000000 -8.076755 -0.486374 -3.806029 84.086869 15.290038 -13.669392 -3.600046 0.000261 -0.003540 81.649980 11.503438 -9.626808 -2.100041 0.000299 -0.005511 81.874700 8.444202 -7.129347 -2.115784 -0.000052 -0.003677 -0.000002 -0.000000 -0.000006 4.570446 11.014691 -2.160851 -0.000018 0.000010 -0.000021 10.592464 -0.524476 -2.232410 71.010260 -36.962655 26.823719 27.841801 0.000057 -0.000195 99.369615 -78.044139 87.369116 28.328840 -0.000029 0.000021 0.000020 -0.000090 -0.000000 2.466229 -1.575888 2.681784 -160.892455 -13.623239 36.657581 3.217877 -1.871922 1.916461 164.004959 -15.133495 63.232006 2.656088 -1.528720 1.514514 136.440815 -28.472692 69.299762 2.020895 -1.154084 1.115155 0.000002 0.000007 0.000004 9.109391 -0.517919 2.259748 71.831563 -24.877963 18.144211 3.700042 0.000105 -0.000455 71.487007 -17.315540 12.521243 2.850049 0.000156 0.000205 71.306540 -13.556559 9.745716 2.774895 -0.000046 -0.000023 -0.000000 0.000000 0.000000 9.533462 0.000136 -0.000064 66.367213 -23.635282 15.576555 3.700044 0.000121 -0.000344 70.944512 -15.333536 10.956248 2.950047 0.000132 -0.000193 71.187619 -13.241975 9.500913 2.952865 -0.000015 0.000060 -0.000001 0.000003 0.000000 9.104583 -0.042928 -1.865208 65.501016 -22.833640 14.803422 3.150039 0.000125 -0.000088 69.570169 -15.079029 10.507057 2.950016 0.000137 -0.000093 70.093430 -10.407242 7.311318 2.644317 0.000030 0.000061 0.000000 -0.000001 0.000000 8.077841 -0.486779 -3.806374 59.287852 -22.343997 13.201182 3.600007 0.000102 0.014590 59.492122 -17.215050 10.205889 2.100032 0.000117 0.007550 62.277241 -12.493472 7.868560 2.125499 -0.000000 0.007509 -0.000002 -0.000003 -0.000001 -8.207786 -6.751667 -1.599560 -0.077001 -0.000003 0.000080 -0.000002 -44.370110 0.345938 0.153719 -0.000000 -0.000000 0.000000 -44.423679 -3.043532 -0.076700 0.000000 -0.000002 -0.000006 -8.728667 10.710559 -0.000009 -0.000000 -0.000000 -0.000001 -0.000679 9.278123 0.000000 -0.000000 -0.000000 8.207792 -6.751710 -1.599556 -0.074518 -0.000003 0.000081 -0.000002 -44.370014 0.346960 0.148822 0.000002 0.000000 -0.000001 -44.423664 -3.044403 -0.074314 0.000000 -0.000002 -0.000004 -8.728671 10.710558 0.000007 -0.000000 -0.000000 0.000000 -0.000680 9.278137 -0.000000 0.000000 -0.000001 
